<?xml version="1.0" encoding="UTF-8" standalone="no"?>
<!-- Generator: Adobe Illustrator 16.0.0, SVG Export Plug-In . SVG Version: 6.00 Build 0)  -->

<svg
   xmlns:dc="http://purl.org/dc/elements/1.1/"
   xmlns:cc="http://creativecommons.org/ns#"
   xmlns:rdf="http://www.w3.org/1999/02/22-rdf-syntax-ns#"
   xmlns:svg="http://www.w3.org/2000/svg"
   xmlns="http://www.w3.org/2000/svg"
   xmlns:sodipodi="http://sodipodi.sourceforge.net/DTD/sodipodi-0.dtd"
   xmlns:inkscape="http://www.inkscape.org/namespaces/inkscape"
   version="1.1"
   id="Layer_1"
   x="0px"
   y="0px"
   width="1000px"
   height="1000px"
   viewBox="0 0 1000 1000"
   enable-background="new 0 0 1000 1000"
   xml:space="preserve"
   sodipodi:docname="email.svg"
   inkscape:version="0.92.5 (2060ec1f9f, 2020-04-08)"><metadata
   id="metadata15"><rdf:RDF><cc:Work
       rdf:about=""><dc:format>image/svg+xml</dc:format><dc:type
         rdf:resource="http://purl.org/dc/dcmitype/StillImage" /></cc:Work></rdf:RDF></metadata><defs
   id="defs13" /><sodipodi:namedview
   pagecolor="#ffffff"
   bordercolor="#666666"
   borderopacity="1"
   objecttolerance="10"
   gridtolerance="10"
   guidetolerance="10"
   inkscape:pageopacity="0"
   inkscape:pageshadow="2"
   inkscape:window-width="1854"
   inkscape:window-height="1016"
   id="namedview11"
   showgrid="false"
   inkscape:zoom="0.236"
   inkscape:cx="-283.89831"
   inkscape:cy="500"
   inkscape:window-x="66"
   inkscape:window-y="27"
   inkscape:window-maximized="1"
   inkscape:current-layer="Layer_1" />
<g
   id="g4"
   style="fill:#d696d9;fill-opacity:1">
	<path
   fill="#90B2CC"
   d="M974.721,825.317c0,82.5-67.5,150-150,150H175.279c-82.5,0-150-67.5-150-150V174.683   c0-82.5,67.5-150,150-150h649.441c82.5,0,150,67.5,150,150V825.317z"
   id="path2"
   style="fill:#d696d9;fill-opacity:1" />
</g>
<g
   id="g8"
   style="fill:#3a163c;fill-opacity:1">
	<path
   fill="#2C3E50"
   d="M839.692,249.017H160.31c-15.02,0-27.198,12.174-27.198,27.196v463.57c0,15.021,12.178,27.2,27.198,27.2   h679.383c15.018,0,27.196-12.179,27.196-27.2v-463.57C866.889,261.191,854.71,249.017,839.692,249.017z M187.506,327.71   l184.761,126.065L187.506,666.894V327.71L187.506,327.71z M500.007,475.076L248.42,303.41h503.158L500.007,475.076z    M417.512,484.641l67.158,45.828c4.637,3.147,9.989,4.728,15.337,4.728c5.356,0,10.707-1.58,15.327-4.728l67.169-45.828   l197.633,227.946H219.897L417.512,484.641z M627.745,453.775L812.496,327.71v339.153L627.745,453.775z"
   id="path6"
   style="fill:#3a163c;fill-opacity:1" />
</g>
</svg>