<?xml version="1.0" encoding="UTF-8" standalone="no"?>
<!-- Generator: Adobe Illustrator 16.0.0, SVG Export Plug-In . SVG Version: 6.00 Build 0)  -->

<svg
   xmlns:dc="http://purl.org/dc/elements/1.1/"
   xmlns:cc="http://creativecommons.org/ns#"
   xmlns:rdf="http://www.w3.org/1999/02/22-rdf-syntax-ns#"
   xmlns:svg="http://www.w3.org/2000/svg"
   xmlns="http://www.w3.org/2000/svg"
   xmlns:xlink="http://www.w3.org/1999/xlink"
   xmlns:sodipodi="http://sodipodi.sourceforge.net/DTD/sodipodi-0.dtd"
   xmlns:inkscape="http://www.inkscape.org/namespaces/inkscape"
   version="1.1"
   id="Layer_1"
   x="0px"
   y="0px"
   width="1000px"
   height="1000px"
   viewBox="0 0 1000 1000"
   enable-background="new 0 0 1000 1000"
   xml:space="preserve"
   sodipodi:docname="kscuk.svg"
   inkscape:version="0.92.5 (2060ec1f9f, 2020-04-08)"><metadata
   id="metadata166"><rdf:RDF><cc:Work
       rdf:about=""><dc:format>image/svg+xml</dc:format><dc:type
         rdf:resource="http://purl.org/dc/dcmitype/StillImage" /></cc:Work></rdf:RDF></metadata><defs
   id="defs164" /><sodipodi:namedview
   pagecolor="#ffffff"
   bordercolor="#666666"
   borderopacity="1"
   objecttolerance="10"
   gridtolerance="10"
   guidetolerance="10"
   inkscape:pageopacity="0"
   inkscape:pageshadow="2"
   inkscape:window-width="1854"
   inkscape:window-height="1016"
   id="namedview162"
   showgrid="false"
   inkscape:zoom="0.3337544"
   inkscape:cx="1061.5431"
   inkscape:cy="368.98344"
   inkscape:window-x="66"
   inkscape:window-y="27"
   inkscape:window-maximized="1"
   inkscape:current-layer="Layer_1" />
<circle
   fill="#007F3E"
   cx="500"
   cy="502.999"
   r="473.937"
   id="circle2" />
<circle
   fill="#00A64F"
   cx="500"
   cy="500"
   r="418.439"
   id="circle4" />
<g
   id="men_5">
	<g
   id="g28">
		<defs
   id="defs7">
			<path
   id="SVGID_1_"
   d="M972.897,503.505C972.897,242.038,761.17,30.079,500,30.079c-261.179,0-472.897,211.959-472.897,473.426     c0,261.468,211.718,473.433,472.897,473.433C761.17,976.938,972.897,764.973,972.897,503.505z" />
		</defs>
		<clipPath
   id="SVGID_2_">
			<use
   xlink:href="#SVGID_1_"
   overflow="visible"
   id="use9" />
		</clipPath>
		<g
   clip-path="url(#SVGID_2_)"
   id="g26">
			<rect
   x="432.509"
   y="622.906"
   width="138.491"
   height="152.026"
   id="rect12"
   fill="#D9A88C" />
			<path
   d="M717.926,760.337c-32.044-37.143-80.185-45.194-124.183-56.546h-23.617     c0,29.896-31.007,54.127-69.252,54.127c-38.244,0-69.25-24.23-69.25-54.127h-23.569c-43.997,11.352-92.188,19.403-124.233,56.546     c-19.965,23.146-54.645,216.601-54.645,216.601h83.892h187.805h187.807h83.892C772.572,976.938,737.895,783.482,717.926,760.337z     "
   id="path14"
   fill="#C74244" />
			<path
   d="M678.325,391.441c-1.087-0.149-2.17-0.214-3.246-0.223c-5.508-167.086-107.913-203.327-173.331-203.327     c-65.414,0-167.821,36.241-173.328,203.327c-1.077,0.008-2.159,0.074-3.246,0.223c-19.776,2.718-33.413,28.148-30.446,56.797     c2.961,28.644,21.405,49.665,41.182,46.956c0.406-0.056,0.805-0.136,1.206-0.21c11.04,53.084,29.567,87.989,39.466,100.631     c13.518,17.263,89.51,54.049,125.167,54.049c35.655,0,111.649-36.786,125.169-54.049c9.897-12.642,28.425-47.546,39.466-100.631     c0.4,0.075,0.799,0.155,1.204,0.21c19.779,2.708,38.218-18.313,41.184-46.956C711.74,419.589,698.1,394.159,678.325,391.441z"
   id="path16"
   fill="#F2D8BC" />
			<path
   d="M678.325,391.441c-1.087-0.149-2.17-0.214-3.246-0.223c-5.508-167.086-107.913-203.327-173.331-203.327     c0,0,0,280.544,0,461.772c35.655,0,111.649-36.786,125.169-54.049c9.897-12.642,28.425-47.546,39.466-100.631     c0.4,0.075,0.799,0.155,1.204,0.21c19.779,2.708,38.218-18.313,41.184-46.956C711.74,419.589,698.1,394.159,678.325,391.441z"
   id="path18"
   fill="#E9C0A7" />
			<path
   d="M501.748,582.016c31.345,0,56.751-10.368,56.751-23.15H445.005     C445.005,571.647,470.41,582.016,501.748,582.016z"
   id="path20"
   fill="#FFFFFF" />
			<path
   d="M641.63,419.697c7.236-18.493,21.558-30.335,36.695-28.256c0.033,0.007,0.076,0.016,0.111,0.028     c6.867-21.273,9.326-46.561-0.09-73.396c-50.071-142.713,6.802-168.19,6.802-168.19s-55.373-2.48-98.328,33.113     c29.623-45.971,42.955-57.84,42.955-57.84s-62.211-13.342-128.862,54.87c14.811-37.073,32.589-55.926,32.589-55.926     s-139.241,1.056-189.604,101.897c-28.709,57.476-30.926,119.744-23.978,166.809c1.7-0.614,3.44-1.114,5.254-1.365     c6.57-0.897,12.973,0.854,18.724,4.596c0-21.746,0-40.978,0-43.993c26.665-11.867,54.808-26.694,53.324-86.015     c62.216,0,96.28,0,96.28,0h99.242c0,0-4.445,66.74,48.887,83.046C641.63,376.904,641.63,401.46,641.63,419.697z"
   id="path22"
   fill="#563929" />
			<path
   d="M500.9,775.477c51.267,0,92.843-32.092,92.843-71.686h-23.786c0,29.84-30.905,54.039-69.057,54.121     c-38.16-0.082-69.058-24.281-69.058-54.121h-23.788C408.055,743.385,449.625,775.477,500.9,775.477z"
   id="path24"
   fill="#0F958D" />
		</g>
	</g>
</g>
<circle
   fill="none"
   cx="500"
   cy="500"
   r="329"
   id="circle31" />
<text
   transform="matrix(-0.39 -0.9208 0.9208 -0.39 204.8389 646.9131)"
   display="none"
   opacity="0.9"
   id="text99"><tspan
     x="0"
     y="0"
     display="inline"
     fill="#FFFFFF"
     font-family="'Calibri-Bold'"
     font-size="85"
     id="tspan33">Z</tspan><tspan
     x="40.459"
     y="-0.558"
     display="inline"
     fill="#FFFFFF"
     font-family="'Calibri-Bold'"
     font-size="85"
     rotate="8.381"
     id="tspan35">ú</tspan><tspan
     x="94.965"
     y="7.857"
     display="inline"
     fill="#FFFFFF"
     font-family="'Calibri-Bold'"
     font-size="85"
     rotate="17.088"
     id="tspan37">č</tspan><tspan
     x="137.861"
     y="20.793"
     display="inline"
     fill="#FFFFFF"
     font-family="'Calibri-Bold'"
     font-size="85"
     rotate="25.329"
     id="tspan39">a</tspan><tspan
     x="184.108"
     y="43.094"
     display="inline"
     fill="#FFFFFF"
     font-family="'Calibri-Bold'"
     font-size="85"
     rotate="33.25"
     id="tspan41">s</tspan><tspan
     x="217.774"
     y="65.095"
     display="inline"
     fill="#FFFFFF"
     font-family="'Calibri-Bold'"
     font-size="85"
     rotate="40.459"
     id="tspan43">t</tspan><tspan
     x="249.967"
     y="91.849"
     display="inline"
     fill="#FFFFFF"
     font-family="'Calibri-Bold'"
     font-size="85"
     rotate="48.992"
     id="tspan45">n</tspan><tspan
     x="285.976"
     y="134.793"
     display="inline"
     fill="#FFFFFF"
     font-family="'Calibri-Bold'"
     font-size="85"
     rotate="55.861"
     id="tspan47">i</tspan><tspan
     x="299.061"
     y="154.24"
     display="inline"
     fill="#FFFFFF"
     font-family="'Calibri-Bold'"
     font-size="85"
     rotate="59.633"
     id="tspan49"> </tspan><tspan
     x="309.421"
     y="171.022"
     display="inline"
     fill="#FFFFFF"
     font-family="'Calibri-Bold'"
     font-size="85"
     rotate="64.859"
     id="tspan51">s</tspan><tspan
     x="326.539"
     y="207.406"
     display="inline"
     fill="#FFFFFF"
     font-family="'Calibri-Bold'"
     font-size="85"
     rotate="71.921"
     id="tspan53">e</tspan><tspan
     x="339.024"
     y="247.377"
     display="inline"
     fill="#FFFFFF"
     font-family="'Calibri-Bold'"
     font-size="85"
     rotate="77.252"
     id="tspan55"> </tspan><tspan
     x="343.816"
     y="266.481"
     display="inline"
     fill="#FFFFFF"
     font-family="'Calibri-Bold'"
     font-size="85"
     rotate="82.492"
     id="tspan57">s</tspan><tspan
     x="349.694"
     y="306.039"
     display="inline"
     fill="#FFFFFF"
     font-family="'Calibri-Bold'"
     font-size="85"
     rotate="90.972"
     id="tspan59">o</tspan><tspan
     x="348.687"
     y="362.989"
     display="inline"
     fill="#FFFFFF"
     font-family="'Calibri-Bold'"
     font-size="85"
     rotate="100.767"
     id="tspan61">u</tspan><tspan
     x="337.837"
     y="417.139"
     display="inline"
     fill="#FFFFFF"
     font-family="'Calibri-Bold'"
     font-size="85"
     rotate="109.045"
     id="tspan63">s</tspan><tspan
     x="324.759"
     y="455.19"
     display="inline"
     fill="#FFFFFF"
     font-family="'Calibri-Bold'"
     font-size="85"
     rotate="116.1"
     id="tspan65">t</tspan><tspan
     x="306.464"
     y="493.01"
     display="inline"
     fill="#FFFFFF"
     font-family="'Calibri-Bold'"
     font-size="85"
     rotate="123.891"
     id="tspan67">Ř</tspan><tspan
     x="279.689"
     y="532.499"
     display="inline"
     fill="#FFFFFF"
     font-family="'Calibri-Bold'"
     font-size="85"
     rotate="131.689"
     id="tspan69">e</tspan><tspan
     x="252.553"
     y="563.641"
     display="inline"
     fill="#FFFFFF"
     font-family="'Calibri-Bold'"
     font-size="85"
     rotate="139.967"
     id="tspan71">d</tspan><tspan
     x="211.436"
     y="597.632"
     display="inline"
     fill="#FFFFFF"
     font-family="'Calibri-Bold'"
     font-size="85"
     rotate="148.195"
     id="tspan73">ě</tspan><tspan
     x="176.656"
     y="619.842"
     display="inline"
     fill="#FFFFFF"
     font-family="'Calibri-Bold'"
     font-size="85"
     rotate="156.583"
     id="tspan75">n</tspan><tspan
     x="124.841"
     y="641.198"
     display="inline"
     fill="#FFFFFF"
     font-family="'Calibri-Bold'"
     font-size="85"
     rotate="163.401"
     id="tspan77">í</tspan><tspan
     x="102.326"
     y="647.822"
     display="inline"
     fill="#FFFFFF"
     font-family="'Calibri-Bold'"
     font-size="85"
     rotate="167.171"
     id="tspan79"> </tspan><tspan
     x="83.509"
     y="652.99"
     display="inline"
     fill="#FFFFFF"
     font-family="'Calibri-Bold'"
     font-size="85"
     rotate="173.358"
     id="tspan81">a</tspan><tspan
     x="32.071"
     y="658.089"
     display="inline"
     fill="#FFFFFF"
     font-family="'Calibri-Bold'"
     font-size="85"
     rotate="179.573"
     id="tspan83"> </tspan><tspan
     x="12.492"
     y="658.908"
     display="inline"
     fill="#FFFFFF"
     font-family="'Calibri-Bold'"
     font-size="85"
     rotate="-174.612"
     id="tspan85">k</tspan><tspan
     x="-33.716"
     y="654.342"
     display="inline"
     fill="#FFFFFF"
     font-family="'Calibri-Bold'"
     font-size="85"
     rotate="-167.033"
     id="tspan87">s</tspan><tspan
     x="-73.121"
     y="644.814"
     display="inline"
     fill="#FFFFFF"
     font-family="'Calibri-Bold'"
     font-size="85"
     rotate="-161.504"
     id="tspan89">í</tspan><tspan
     x="-95.111"
     y="637.844"
     display="inline"
     fill="#FFFFFF"
     font-family="'Calibri-Bold'"
     font-size="85"
     rotate="-156.117"
     id="tspan91">l</tspan><tspan
     x="-128.297"
     y="623.423"
     display="inline"
     fill="#FFFFFF"
     font-family="'Calibri-Bold'"
     font-size="85"
     rotate="-149.7"
     id="tspan93">e</tspan><tspan
     x="-164.096"
     y="602.531"
     display="inline"
     fill="#FFFFFF"
     font-family="'Calibri-Bold'"
     font-size="85"
     rotate="-142.406"
     id="tspan95">t</tspan><tspan
     x="-197.583"
     y="577.396"
     display="inline"
     fill="#FFFFFF"
     font-family="'Calibri-Bold'"
     font-size="85"
     rotate="-133.905"
     id="tspan97">ů</tspan></text>

<g
   id="g159"
   transform="rotate(31.99884,520.05032,507.75291)"
   style="opacity:0.9">
	<path
   d="m 185.339,611.777 c 0.74,-0.311 1.379,-0.54 1.916,-0.691 0.538,-0.149 0.992,-0.229 1.364,-0.234 0.373,-0.006 0.663,0.06 0.871,0.197 0.208,0.138 0.36,0.321 0.456,0.551 l 12.252,29.202 c 0.428,1.021 0.464,1.928 0.107,2.723 -0.356,0.795 -1.096,1.428 -2.219,1.898 l -1.684,0.707 c -0.51,0.214 -0.989,0.378 -1.437,0.49 -0.448,0.113 -0.92,0.184 -1.419,0.213 -0.498,0.028 -1.063,0.004 -1.697,-0.076 -0.633,-0.079 -1.398,-0.186 -2.295,-0.319 l -38.525,-6.431 7.997,19.06 c 0.128,0.306 0.168,0.598 0.119,0.873 -0.049,0.275 -0.197,0.548 -0.445,0.816 -0.247,0.27 -0.612,0.543 -1.096,0.82 -0.483,0.278 -1.083,0.566 -1.797,0.866 -0.766,0.321 -1.423,0.56 -1.973,0.716 -0.549,0.155 -1.013,0.229 -1.392,0.224 -0.377,-0.007 -0.676,-0.092 -0.895,-0.255 -0.218,-0.163 -0.392,-0.398 -0.521,-0.704 l -11.481,-27.364 c -0.439,-1.046 -0.495,-1.931 -0.168,-2.653 0.327,-0.722 0.976,-1.287 1.945,-1.693 l 1.875,-0.787 c 0.689,-0.289 1.295,-0.506 1.82,-0.65 0.524,-0.146 1.057,-0.233 1.599,-0.267 0.542,-0.031 1.12,-0.012 1.735,0.06 0.615,0.072 1.358,0.181 2.229,0.325 l 37.976,6.301 -8.688,-20.705 c -0.203,-0.484 -0.052,-0.983 0.453,-1.495 0.505,-0.512 1.513,-1.086 3.018,-1.718 z"
   id="path101"
   inkscape:connector-curvature="0"
   style="fill:#ffffff" />
	<path
   d="m 114.494,596.001 c -0.491,-0.245 -0.9,-0.504 -1.228,-0.777 -0.328,-0.273 -0.618,-0.627 -0.873,-1.062 -0.254,-0.435 -0.487,-0.982 -0.699,-1.642 -0.212,-0.66 -0.445,-1.485 -0.7,-2.478 -0.316,-1.232 -0.481,-2.212 -0.496,-2.937 -0.014,-0.725 0.073,-1.246 0.263,-1.566 0.19,-0.32 0.462,-0.454 0.818,-0.403 0.356,0.053 0.757,0.221 1.201,0.507 l 10.33,6.862 c 0.31,0.207 0.588,0.428 0.834,0.665 0.247,0.236 0.481,0.54 0.705,0.911 0.224,0.371 0.435,0.831 0.633,1.381 0.198,0.549 0.403,1.239 0.616,2.069 0.234,0.912 0.381,1.652 0.441,2.223 0.06,0.571 0.034,0.991 -0.083,1.264 -0.115,0.272 -0.314,0.416 -0.596,0.432 -0.281,0.015 -0.651,-0.091 -1.109,-0.315 z m 41.974,-30.303 c 3.19,-0.818 6.165,-1.081 8.924,-0.789 2.76,0.292 5.245,1.126 7.455,2.502 2.21,1.376 4.114,3.287 5.712,5.733 1.598,2.446 2.845,5.412 3.738,8.896 0.839,3.271 1.183,6.311 1.032,9.119 -0.15,2.81 -0.826,5.325 -2.028,7.547 -1.201,2.223 -2.919,4.127 -5.154,5.714 -2.235,1.588 -5.014,2.807 -8.338,3.659 l -31.64,8.114 c -0.268,0.069 -0.529,0.051 -0.786,-0.056 -0.255,-0.105 -0.503,-0.349 -0.744,-0.73 -0.24,-0.381 -0.487,-0.896 -0.739,-1.545 -0.252,-0.649 -0.513,-1.497 -0.781,-2.542 -0.261,-1.019 -0.437,-1.873 -0.529,-2.564 -0.091,-0.69 -0.122,-1.254 -0.091,-1.69 0.031,-0.437 0.132,-0.769 0.301,-0.998 0.17,-0.229 0.389,-0.379 0.656,-0.447 l 30.715,-7.877 c 2.064,-0.529 3.788,-1.242 5.171,-2.141 1.384,-0.896 2.45,-1.949 3.197,-3.154 0.748,-1.206 1.199,-2.536 1.355,-3.99 0.156,-1.454 0.023,-2.998 -0.396,-4.633 -0.426,-1.661 -1.062,-3.084 -1.909,-4.267 -0.845,-1.183 -1.875,-2.104 -3.087,-2.765 -1.211,-0.66 -2.598,-1.055 -4.16,-1.183 -1.561,-0.128 -3.252,0.041 -5.075,0.509 l -31.318,8.032 c -0.268,0.068 -0.53,0.05 -0.786,-0.056 -0.255,-0.106 -0.501,-0.343 -0.739,-0.711 -0.237,-0.367 -0.483,-0.883 -0.739,-1.545 -0.255,-0.663 -0.514,-1.504 -0.775,-2.522 -0.261,-1.019 -0.436,-1.866 -0.523,-2.544 -0.088,-0.677 -0.117,-1.233 -0.086,-1.67 0.031,-0.437 0.133,-0.763 0.306,-0.979 0.174,-0.216 0.394,-0.358 0.662,-0.427 z"
   id="path103"
   inkscape:connector-curvature="0"
   style="fill:#ffffff" />
	<path
   d="m 115.027,535.021 c 0.087,0.882 0.148,1.626 0.18,2.234 0.033,0.608 0.008,1.133 -0.073,1.571 -0.082,0.439 -0.223,0.829 -0.426,1.168 -0.202,0.341 -0.465,0.707 -0.787,1.101 l -8.026,9.056 c -0.377,0.399 -0.693,0.646 -0.948,0.74 -0.254,0.096 -0.462,0.032 -0.624,-0.188 -0.161,-0.221 -0.298,-0.624 -0.412,-1.211 -0.114,-0.586 -0.217,-1.348 -0.311,-2.283 -0.112,-1.129 -0.183,-2.054 -0.213,-2.773 -0.03,-0.719 -0.018,-1.298 0.036,-1.734 0.055,-0.437 0.152,-0.78 0.294,-1.03 0.142,-0.25 0.326,-0.498 0.552,-0.743 l 5.174,-5.436 -6.08,-4.526 c -0.297,-0.192 -0.547,-0.397 -0.75,-0.613 -0.202,-0.216 -0.372,-0.533 -0.511,-0.95 -0.139,-0.417 -0.263,-0.968 -0.373,-1.652 -0.11,-0.684 -0.222,-1.604 -0.337,-2.761 -0.093,-0.937 -0.132,-1.683 -0.119,-2.241 0.015,-0.557 0.086,-0.96 0.213,-1.21 0.128,-0.248 0.327,-0.352 0.595,-0.309 0.268,0.043 0.597,0.197 0.984,0.465 l 9.639,7.176 c 0.388,0.268 0.71,0.569 0.966,0.904 0.256,0.337 0.47,0.739 0.642,1.209 0.171,0.47 0.31,1.026 0.416,1.668 0.107,0.642 0.206,1.432 0.299,2.368 z m 47.477,-21.694 c 0.689,-0.068 1.276,-0.105 1.762,-0.112 0.486,-0.006 0.905,0.015 1.257,0.063 0.353,0.048 0.659,0.129 0.921,0.241 0.262,0.114 0.566,0.306 0.912,0.577 0.347,0.271 0.811,0.816 1.393,1.634 0.582,0.818 1.162,1.832 1.741,3.039 0.579,1.208 1.099,2.602 1.563,4.183 0.463,1.58 0.788,3.307 0.974,5.179 0.364,3.662 0.127,7.022 -0.708,10.081 -0.835,3.059 -2.273,5.731 -4.313,8.02 -2.039,2.287 -4.683,4.149 -7.933,5.584 -3.25,1.436 -7.105,2.375 -11.565,2.817 -4.543,0.452 -8.636,0.247 -12.281,-0.614 -3.645,-0.861 -6.773,-2.261 -9.385,-4.198 -2.611,-1.937 -4.688,-4.364 -6.229,-7.284 -1.542,-2.919 -2.494,-6.21 -2.858,-9.872 -0.148,-1.487 -0.166,-2.931 -0.055,-4.332 0.111,-1.401 0.309,-2.707 0.591,-3.917 0.283,-1.21 0.64,-2.309 1.07,-3.297 0.43,-0.987 0.813,-1.687 1.147,-2.095 0.334,-0.409 0.619,-0.694 0.853,-0.856 0.234,-0.162 0.54,-0.305 0.917,-0.425 0.377,-0.121 0.826,-0.229 1.344,-0.321 0.519,-0.094 1.165,-0.179 1.935,-0.255 0.826,-0.082 1.531,-0.124 2.114,-0.127 0.584,-0.002 1.062,0.048 1.433,0.149 0.372,0.103 0.65,0.242 0.834,0.418 0.185,0.177 0.289,0.388 0.313,0.636 0.041,0.413 -0.147,0.961 -0.567,1.642 -0.418,0.682 -0.874,1.554 -1.367,2.617 -0.492,1.064 -0.91,2.315 -1.253,3.753 -0.343,1.438 -0.42,3.122 -0.229,5.049 0.211,2.12 0.833,3.97 1.866,5.55 1.033,1.58 2.413,2.874 4.14,3.885 1.727,1.01 3.763,1.704 6.108,2.083 2.346,0.379 4.95,0.426 7.813,0.141 3.139,-0.312 5.826,-0.905 8.061,-1.78 2.235,-0.875 4.036,-1.986 5.404,-3.332 1.368,-1.346 2.333,-2.901 2.894,-4.667 0.562,-1.766 0.737,-3.708 0.526,-5.828 -0.191,-1.928 -0.584,-3.571 -1.178,-4.93 -0.594,-1.359 -1.216,-2.514 -1.867,-3.465 -0.65,-0.949 -1.228,-1.727 -1.733,-2.33 -0.504,-0.603 -0.775,-1.083 -0.811,-1.441 -0.027,-0.275 0.006,-0.501 0.1,-0.678 0.094,-0.176 0.3,-0.335 0.62,-0.479 0.319,-0.143 0.772,-0.271 1.359,-0.385 0.588,-0.116 1.376,-0.222 2.367,-0.321 z"
   id="path105"
   inkscape:connector-curvature="0"
   style="fill:#ffffff" />
	<path
   d="m 168.349,460.774 c 1.01,-0.287 1.807,-0.459 2.391,-0.516 0.584,-0.057 1.015,0.073 1.291,0.39 0.277,0.317 0.432,0.864 0.467,1.641 0.034,0.777 0.021,1.843 -0.04,3.197 -0.063,1.41 -0.133,2.507 -0.21,3.293 -0.077,0.786 -0.187,1.383 -0.33,1.792 -0.143,0.409 -0.328,0.691 -0.557,0.847 -0.229,0.156 -0.525,0.282 -0.889,0.376 l -10.942,3.124 -0.903,20.151 10.338,3.87 c 0.382,0.128 0.701,0.288 0.955,0.479 0.255,0.192 0.449,0.492 0.583,0.899 0.134,0.408 0.212,0.979 0.235,1.713 0.022,0.735 0.007,1.697 -0.046,2.886 -0.057,1.271 -0.143,2.265 -0.258,2.979 -0.115,0.716 -0.337,1.204 -0.668,1.466 -0.33,0.263 -0.784,0.339 -1.36,0.229 -0.577,-0.108 -1.341,-0.351 -2.294,-0.726 l -46.857,-18.676 c -0.462,-0.187 -0.834,-0.397 -1.114,-0.631 -0.28,-0.234 -0.485,-0.596 -0.616,-1.087 -0.13,-0.49 -0.197,-1.165 -0.2,-2.024 -0.003,-0.858 0.027,-1.993 0.09,-3.403 0.073,-1.63 0.152,-2.929 0.237,-3.895 0.085,-0.965 0.216,-1.714 0.392,-2.247 0.176,-0.532 0.421,-0.909 0.736,-1.13 0.315,-0.221 0.739,-0.403 1.271,-0.545 z m -40.451,22.867 -0.002,0.042 22.464,8.609 0.682,-15.217 z"
   id="path107"
   inkscape:connector-curvature="0"
   style="fill:#ffffff" />
	<path
   d="m 163.875,419.503 c 2.775,0.514 5.115,1.482 7.018,2.903 1.904,1.422 3.392,3.146 4.466,5.174 1.074,2.028 1.746,4.291 2.015,6.789 0.269,2.498 0.155,5.094 -0.344,7.787 -0.338,1.823 -0.801,3.489 -1.39,4.998 -0.589,1.509 -1.205,2.823 -1.848,3.942 -0.643,1.12 -1.271,2.038 -1.882,2.754 -0.611,0.717 -1.126,1.22 -1.545,1.508 -0.418,0.289 -0.976,0.446 -1.67,0.472 -0.694,0.027 -1.667,-0.076 -2.919,-0.308 -0.843,-0.156 -1.546,-0.313 -2.107,-0.474 -0.561,-0.16 -1.007,-0.334 -1.338,-0.522 -0.331,-0.188 -0.552,-0.397 -0.665,-0.629 -0.111,-0.231 -0.143,-0.483 -0.092,-0.756 0.071,-0.38 0.395,-0.876 0.972,-1.487 0.577,-0.61 1.239,-1.41 1.984,-2.397 0.746,-0.987 1.482,-2.194 2.211,-3.622 0.729,-1.427 1.276,-3.133 1.644,-5.12 0.242,-1.306 0.302,-2.504 0.18,-3.596 -0.121,-1.092 -0.401,-2.051 -0.839,-2.878 -0.438,-0.826 -1.043,-1.508 -1.816,-2.046 -0.772,-0.537 -1.676,-0.901 -2.71,-1.092 -1.197,-0.222 -2.285,-0.085 -3.263,0.409 -0.978,0.494 -1.896,1.204 -2.757,2.127 -0.86,0.924 -1.706,1.999 -2.539,3.224 -0.832,1.225 -1.705,2.484 -2.62,3.778 -0.915,1.294 -1.91,2.531 -2.987,3.71 -1.076,1.18 -2.29,2.187 -3.64,3.019 -1.35,0.834 -2.875,1.431 -4.574,1.792 -1.698,0.361 -3.65,0.337 -5.854,-0.07 -2.53,-0.468 -4.667,-1.35 -6.412,-2.643 -1.745,-1.294 -3.102,-2.854 -4.072,-4.679 -0.971,-1.826 -1.568,-3.878 -1.794,-6.157 -0.225,-2.279 -0.114,-4.628 0.334,-7.05 0.231,-1.251 0.559,-2.485 0.98,-3.702 0.422,-1.216 0.897,-2.338 1.425,-3.366 0.528,-1.027 1.074,-1.925 1.638,-2.693 0.564,-0.768 1.008,-1.263 1.33,-1.484 0.323,-0.221 0.588,-0.362 0.796,-0.423 0.208,-0.06 0.476,-0.095 0.8,-0.105 0.326,-0.01 0.729,0.016 1.21,0.076 0.481,0.062 1.076,0.157 1.783,0.288 0.79,0.146 1.452,0.29 1.989,0.431 0.537,0.141 0.973,0.293 1.309,0.454 0.336,0.161 0.569,0.345 0.7,0.551 0.13,0.208 0.168,0.46 0.113,0.76 -0.056,0.3 -0.334,0.74 -0.836,1.323 -0.501,0.583 -1.065,1.308 -1.69,2.177 -0.625,0.87 -1.237,1.896 -1.836,3.079 -0.599,1.184 -1.037,2.524 -1.314,4.02 -0.216,1.17 -0.262,2.217 -0.138,3.14 0.124,0.924 0.384,1.725 0.779,2.403 0.396,0.678 0.92,1.226 1.574,1.642 0.655,0.417 1.376,0.698 2.165,0.844 1.17,0.217 2.243,0.085 3.218,-0.396 0.975,-0.48 1.896,-1.196 2.761,-2.148 0.866,-0.951 1.717,-2.053 2.553,-3.305 0.837,-1.252 1.713,-2.525 2.627,-3.819 0.915,-1.293 1.914,-2.544 2.995,-3.751 1.082,-1.207 2.299,-2.234 3.652,-3.081 1.353,-0.847 2.872,-1.452 4.557,-1.815 1.687,-0.367 3.59,-0.353 5.713,0.04 z"
   id="path109"
   inkscape:connector-curvature="0"
   style="fill:#ffffff" />
	<path
   d="m 145.529,366.223 c 0.766,0.242 1.408,0.482 1.928,0.719 0.52,0.237 0.924,0.474 1.212,0.71 0.288,0.237 0.48,0.479 0.576,0.726 0.096,0.248 0.106,0.491 0.031,0.728 l -4.056,12.821 41.272,13.057 c 0.264,0.083 0.474,0.244 0.631,0.482 0.157,0.239 0.239,0.576 0.245,1.013 0.007,0.438 -0.057,1.005 -0.19,1.703 -0.133,0.698 -0.359,1.548 -0.676,2.55 -0.317,1.003 -0.622,1.828 -0.914,2.475 -0.292,0.647 -0.566,1.148 -0.823,1.502 -0.257,0.354 -0.518,0.583 -0.784,0.688 -0.265,0.105 -0.53,0.116 -0.793,0.032 l -41.273,-13.056 -4.056,12.821 c -0.083,0.264 -0.234,0.463 -0.45,0.598 -0.217,0.135 -0.511,0.216 -0.882,0.243 -0.372,0.028 -0.838,-0.011 -1.4,-0.116 -0.562,-0.105 -1.225,-0.279 -1.99,-0.521 -0.791,-0.25 -1.454,-0.496 -1.987,-0.738 -0.533,-0.241 -0.943,-0.479 -1.231,-0.716 -0.288,-0.236 -0.475,-0.469 -0.562,-0.7 -0.086,-0.23 -0.088,-0.478 -0.005,-0.742 l 11.417,-36.089 c 0.075,-0.237 0.217,-0.432 0.424,-0.584 0.208,-0.152 0.497,-0.241 0.869,-0.269 0.372,-0.027 0.845,0.013 1.419,0.123 0.574,0.11 1.257,0.29 2.048,0.54 z"
   id="path111"
   inkscape:connector-curvature="0"
   style="fill:#ffffff" />
	<path
   d="m 210.649,333.948 c 0.572,0.28 1.032,0.629 1.382,1.047 0.35,0.418 0.592,0.867 0.726,1.349 0.134,0.482 0.157,0.986 0.068,1.512 -0.089,0.527 -0.249,1.026 -0.479,1.499 l -2.044,4.175 c -0.426,0.87 -0.881,1.579 -1.365,2.127 -0.484,0.549 -1.086,0.978 -1.808,1.287 -0.722,0.31 -1.595,0.521 -2.622,0.634 -1.026,0.114 -2.312,0.178 -3.859,0.19 l -28.429,0.961 c -1.683,0.039 -3.477,0.039 -5.383,-10e-4 -1.906,-0.04 -3.732,-0.133 -5.478,-0.279 l -0.037,0.075 c 1.838,0.777 3.658,1.576 5.458,2.395 1.801,0.821 3.646,1.693 5.535,2.618 l 25.236,12.355 c 0.249,0.122 0.438,0.3 0.571,0.534 0.132,0.234 0.184,0.552 0.156,0.955 -0.027,0.402 -0.144,0.908 -0.349,1.516 -0.206,0.608 -0.527,1.359 -0.965,2.254 -0.426,0.87 -0.816,1.573 -1.17,2.107 -0.354,0.536 -0.679,0.931 -0.974,1.187 -0.294,0.256 -0.572,0.398 -0.832,0.424 -0.26,0.027 -0.514,-0.021 -0.762,-0.142 L 149.874,353.5 c -1.168,-0.572 -1.876,-1.342 -2.126,-2.312 -0.249,-0.969 -0.131,-1.951 0.356,-2.945 l 2.573,-5.256 c 0.462,-0.944 0.933,-1.699 1.41,-2.267 0.479,-0.566 1.028,-1.014 1.65,-1.341 0.622,-0.327 1.372,-0.553 2.25,-0.678 0.878,-0.125 1.917,-0.186 3.117,-0.184 l 22.231,-0.761 c 1.336,-0.023 2.651,-0.049 3.943,-0.079 1.293,-0.029 2.577,-0.04 3.852,-0.032 1.274,0.008 2.525,0.02 3.75,0.034 1.225,0.015 2.445,0.042 3.657,0.081 l 0.019,-0.038 c -1.776,-0.777 -3.617,-1.609 -5.524,-2.497 -1.907,-0.887 -3.718,-1.751 -5.433,-2.591 l -22.626,-11.078 c -0.248,-0.121 -0.435,-0.305 -0.561,-0.552 -0.126,-0.247 -0.179,-0.58 -0.157,-1.001 0.022,-0.421 0.141,-0.932 0.358,-1.535 0.218,-0.602 0.546,-1.35 0.984,-2.245 0.414,-0.845 0.792,-1.538 1.133,-2.079 0.342,-0.541 0.664,-0.93 0.965,-1.168 0.301,-0.237 0.582,-0.369 0.841,-0.396 0.26,-0.027 0.514,0.021 0.762,0.142 z"
   id="path113"
   inkscape:connector-curvature="0"
   style="fill:#ffffff" />
	<path
   d="m 225.463,315.857 c 0.232,0.15 0.392,0.361 0.48,0.632 0.088,0.272 0.077,0.619 -0.033,1.042 -0.109,0.424 -0.318,0.948 -0.625,1.574 -0.307,0.626 -0.753,1.391 -1.34,2.296 -0.572,0.883 -1.084,1.597 -1.538,2.144 -0.454,0.547 -0.851,0.957 -1.193,1.229 -0.342,0.273 -0.654,0.425 -0.938,0.456 -0.283,0.031 -0.541,-0.03 -0.773,-0.18 l -42.557,-27.59 c -0.232,-0.15 -0.392,-0.361 -0.48,-0.633 -0.088,-0.271 -0.073,-0.624 0.044,-1.06 0.117,-0.435 0.329,-0.965 0.636,-1.591 0.307,-0.626 0.746,-1.379 1.318,-2.262 0.587,-0.906 1.104,-1.626 1.549,-2.161 0.445,-0.535 0.84,-0.939 1.182,-1.212 0.342,-0.273 0.655,-0.424 0.938,-0.456 0.284,-0.03 0.542,0.03 0.773,0.18 z"
   id="path115"
   inkscape:connector-curvature="0"
   style="fill:#ffffff" />
	<path
   d="m 255.036,256.285 c 2.099,1.887 3.589,3.933 4.471,6.139 0.882,2.207 1.251,4.455 1.109,6.745 -0.143,2.291 -0.751,4.571 -1.825,6.842 -1.075,2.271 -2.527,4.426 -4.358,6.463 -1.239,1.379 -2.504,2.558 -3.794,3.538 -1.291,0.98 -2.501,1.779 -3.634,2.397 -1.133,0.62 -2.147,1.075 -3.042,1.367 -0.896,0.293 -1.598,0.453 -2.105,0.479 -0.508,0.027 -1.065,-0.129 -1.671,-0.469 -0.606,-0.34 -1.382,-0.936 -2.329,-1.787 -0.638,-0.573 -1.155,-1.075 -1.549,-1.504 -0.396,-0.43 -0.685,-0.811 -0.869,-1.144 -0.184,-0.333 -0.264,-0.627 -0.238,-0.884 0.026,-0.256 0.131,-0.487 0.316,-0.693 0.259,-0.288 0.794,-0.542 1.605,-0.761 0.812,-0.22 1.793,-0.556 2.944,-1.009 1.151,-0.453 2.41,-1.099 3.776,-1.935 1.366,-0.837 2.724,-2.006 4.074,-3.509 0.888,-0.988 1.565,-1.979 2.031,-2.974 0.467,-0.994 0.729,-1.958 0.787,-2.893 0.058,-0.934 -0.103,-1.831 -0.481,-2.693 -0.379,-0.861 -0.959,-1.644 -1.741,-2.347 -0.905,-0.813 -1.904,-1.265 -2.997,-1.354 -1.092,-0.089 -2.246,0.037 -3.462,0.375 -1.216,0.339 -2.499,0.814 -3.848,1.424 -1.349,0.611 -2.751,1.229 -4.207,1.855 -1.456,0.626 -2.951,1.162 -4.485,1.605 -1.534,0.445 -3.094,0.67 -4.681,0.676 -1.586,0.006 -3.198,-0.28 -4.836,-0.859 -1.637,-0.579 -3.29,-1.618 -4.957,-3.116 -1.914,-1.72 -3.277,-3.587 -4.089,-5.601 -0.812,-2.014 -1.156,-4.053 -1.031,-6.117 0.125,-2.064 0.687,-4.126 1.684,-6.188 0.997,-2.062 2.318,-4.007 3.965,-5.839 0.85,-0.946 1.774,-1.828 2.769,-2.646 0.995,-0.816 1.985,-1.526 2.973,-2.127 0.986,-0.601 1.921,-1.082 2.803,-1.442 0.882,-0.36 1.519,-0.55 1.909,-0.572 0.391,-0.021 0.69,-0.002 0.899,0.055 0.208,0.058 0.455,0.167 0.737,0.328 0.283,0.162 0.614,0.394 0.992,0.696 0.378,0.304 0.836,0.695 1.371,1.176 0.597,0.537 1.087,1.005 1.471,1.406 0.384,0.401 0.677,0.758 0.88,1.07 0.203,0.313 0.306,0.591 0.309,0.836 0.003,0.245 -0.097,0.48 -0.3,0.707 -0.204,0.227 -0.671,0.458 -1.403,0.692 -0.732,0.235 -1.592,0.56 -2.578,0.975 -0.987,0.415 -2.045,0.971 -3.174,1.668 -1.129,0.697 -2.202,1.611 -3.219,2.743 -0.795,0.885 -1.381,1.754 -1.757,2.606 -0.376,0.853 -0.572,1.671 -0.589,2.456 -0.017,0.785 0.145,1.525 0.486,2.222 0.341,0.697 0.81,1.314 1.406,1.85 0.885,0.795 1.869,1.243 2.952,1.342 1.083,0.1 2.242,-0.031 3.477,-0.391 1.235,-0.359 2.536,-0.855 3.903,-1.486 1.368,-0.631 2.779,-1.26 4.234,-1.886 1.456,-0.625 2.96,-1.171 4.513,-1.636 1.552,-0.464 3.126,-0.705 4.723,-0.722 1.596,-0.016 3.208,0.261 4.834,0.83 1.625,0.572 3.241,1.578 4.846,3.021 z"
   id="path117"
   inkscape:connector-curvature="0"
   style="fill:#ffffff" />
	<path
   d="m 294.34,237.185 c 0.527,0.606 0.94,1.135 1.242,1.587 0.302,0.453 0.509,0.85 0.623,1.191 0.113,0.342 0.142,0.638 0.084,0.889 -0.057,0.251 -0.179,0.458 -0.367,0.621 l -20.366,17.692 c -0.689,0.599 -1.446,0.899 -2.27,0.9 -0.824,10e-4 -1.635,-0.458 -2.434,-1.377 L 240.15,223.345 c -0.798,-0.919 -1.14,-1.787 -1.023,-2.602 0.117,-0.815 0.519,-1.523 1.208,-2.122 l 20.241,-17.583 c 0.188,-0.163 0.4,-0.256 0.638,-0.279 0.237,-0.022 0.521,0.052 0.852,0.222 0.332,0.171 0.7,0.437 1.106,0.798 0.406,0.362 0.881,0.856 1.426,1.483 0.508,0.585 0.913,1.104 1.214,1.557 0.301,0.453 0.509,0.85 0.623,1.191 0.113,0.342 0.146,0.634 0.1,0.875 -0.046,0.242 -0.164,0.445 -0.352,0.608 l -14.476,12.575 8.601,9.901 12.251,-10.643 c 0.188,-0.163 0.411,-0.255 0.667,-0.277 0.257,-0.021 0.542,0.044 0.854,0.193 0.313,0.149 0.672,0.405 1.079,0.767 0.406,0.362 0.864,0.835 1.372,1.42 0.526,0.606 0.936,1.13 1.228,1.572 0.292,0.442 0.491,0.829 0.595,1.16 0.104,0.332 0.124,0.617 0.057,0.857 -0.065,0.241 -0.193,0.442 -0.381,0.605 l -12.251,10.643 9.935,11.437 14.601,-12.684 c 0.188,-0.163 0.411,-0.255 0.667,-0.276 0.256,-0.021 0.545,0.048 0.868,0.208 0.322,0.16 0.686,0.421 1.092,0.783 0.406,0.362 0.872,0.846 1.398,1.451 z"
   id="path119"
   inkscape:connector-curvature="0"
   style="fill:#ffffff" />
	<path
   d="m 340.741,193.259 c 1.429,2.434 2.229,4.836 2.4,7.206 0.171,2.37 -0.158,4.624 -0.987,6.763 -0.83,2.14 -2.101,4.128 -3.813,5.967 -1.712,1.838 -3.749,3.452 -6.112,4.838 -1.599,0.938 -3.162,1.679 -4.688,2.222 -1.526,0.542 -2.922,0.938 -4.189,1.184 -1.268,0.247 -2.372,0.374 -3.314,0.381 -0.942,0.008 -1.659,-0.052 -2.151,-0.181 -0.492,-0.127 -0.976,-0.445 -1.45,-0.954 -0.474,-0.507 -1.033,-1.31 -1.678,-2.408 -0.434,-0.74 -0.775,-1.374 -1.021,-1.903 -0.246,-0.529 -0.407,-0.98 -0.481,-1.354 -0.074,-0.373 -0.061,-0.678 0.041,-0.914 0.102,-0.236 0.272,-0.424 0.511,-0.564 0.334,-0.196 0.921,-0.276 1.761,-0.239 0.839,0.037 1.876,0.014 3.111,-0.069 1.234,-0.083 2.629,-0.316 4.185,-0.7 1.556,-0.384 3.204,-1.086 4.946,-2.109 1.146,-0.672 2.091,-1.411 2.837,-2.218 0.746,-0.806 1.288,-1.646 1.626,-2.519 0.338,-0.872 0.457,-1.776 0.357,-2.712 -0.1,-0.936 -0.416,-1.857 -0.948,-2.764 -0.616,-1.05 -1.431,-1.783 -2.445,-2.198 -1.014,-0.416 -2.152,-0.646 -3.414,-0.691 -1.262,-0.045 -2.628,0.019 -4.098,0.191 -1.471,0.174 -2.995,0.338 -4.571,0.493 -1.577,0.156 -3.164,0.213 -4.76,0.171 -1.597,-0.041 -3.152,-0.299 -4.666,-0.775 -1.514,-0.475 -2.963,-1.236 -4.348,-2.284 -1.385,-1.048 -2.645,-2.539 -3.779,-4.471 -1.302,-2.219 -2.036,-4.412 -2.2,-6.577 -0.164,-2.165 0.126,-4.213 0.871,-6.142 0.745,-1.929 1.905,-3.724 3.479,-5.387 1.575,-1.662 3.424,-3.116 5.548,-4.363 1.097,-0.644 2.245,-1.205 3.44,-1.682 1.195,-0.477 2.354,-0.853 3.477,-1.126 1.123,-0.273 2.159,-0.449 3.109,-0.525 0.949,-0.076 1.614,-0.064 1.993,0.034 0.378,0.099 0.659,0.208 0.84,0.325 0.182,0.118 0.383,0.297 0.604,0.536 0.22,0.24 0.465,0.561 0.734,0.964 0.269,0.404 0.586,0.916 0.95,1.536 0.406,0.692 0.731,1.287 0.976,1.785 0.245,0.499 0.416,0.928 0.514,1.287 0.099,0.359 0.112,0.656 0.042,0.89 -0.072,0.234 -0.238,0.428 -0.5,0.582 -0.263,0.154 -0.778,0.233 -1.547,0.234 -0.769,0.002 -1.687,0.051 -2.752,0.147 -1.067,0.097 -2.243,0.306 -3.53,0.628 -1.287,0.322 -2.587,0.869 -3.899,1.639 -1.026,0.602 -1.848,1.253 -2.464,1.951 -0.617,0.699 -1.052,1.42 -1.306,2.162 -0.254,0.743 -0.324,1.498 -0.21,2.265 0.114,0.768 0.374,1.498 0.78,2.189 0.602,1.026 1.404,1.75 2.406,2.173 1.001,0.423 2.146,0.65 3.431,0.681 1.286,0.032 2.676,-0.046 4.17,-0.234 1.495,-0.187 3.03,-0.358 4.607,-0.514 1.577,-0.155 3.176,-0.219 4.796,-0.192 1.62,0.028 3.193,0.276 4.719,0.744 1.526,0.468 2.978,1.22 4.355,2.256 1.378,1.035 2.613,2.483 3.705,4.345 z"
   id="path121"
   inkscape:connector-curvature="0"
   style="fill:#ffffff" />
	<path
   d="m 390.498,159.709 c 1.664,4.133 2.639,8.036 2.925,11.708 0.286,3.673 -0.128,7.054 -1.241,10.142 -1.113,3.088 -2.925,5.831 -5.434,8.229 -2.51,2.397 -5.728,4.387 -9.655,5.968 -3.876,1.561 -7.461,2.416 -10.757,2.564 -3.295,0.149 -6.325,-0.429 -9.087,-1.732 -2.762,-1.304 -5.27,-3.366 -7.524,-6.187 -2.254,-2.821 -4.265,-6.426 -6.033,-10.815 -1.622,-4.029 -2.569,-7.861 -2.839,-11.496 -0.271,-3.634 0.153,-6.989 1.272,-10.064 1.118,-3.075 2.929,-5.817 5.434,-8.229 2.504,-2.41 5.733,-4.411 9.686,-6.003 3.773,-1.519 7.305,-2.359 10.596,-2.521 3.291,-0.162 6.323,0.407 9.098,1.706 2.775,1.299 5.294,3.334 7.559,6.106 2.263,2.77 4.264,6.312 6,10.624 z m -10.409,4.818 c -1.054,-2.618 -2.218,-4.916 -3.492,-6.894 -1.273,-1.978 -2.712,-3.531 -4.315,-4.661 -1.603,-1.129 -3.394,-1.78 -5.373,-1.953 -1.979,-0.172 -4.2,0.237 -6.664,1.229 -2.49,1.002 -4.38,2.309 -5.671,3.917 -1.292,1.609 -2.135,3.403 -2.531,5.382 -0.396,1.979 -0.385,4.1 0.034,6.362 0.419,2.263 1.099,4.562 2.039,6.897 1.095,2.721 2.285,5.083 3.569,7.086 1.284,2.004 2.724,3.579 4.319,4.726 1.595,1.147 3.377,1.794 5.345,1.941 1.968,0.147 4.197,-0.28 6.687,-1.283 2.489,-1.002 4.382,-2.301 5.679,-3.897 1.297,-1.596 2.138,-3.396 2.523,-5.401 0.386,-2.004 0.364,-4.151 -0.065,-6.439 -0.428,-2.288 -1.123,-4.625 -2.084,-7.012 z"
   id="path123"
   inkscape:connector-curvature="0"
   style="fill:#ffffff" />
	<path
   d="m 447.74,154.186 c 0.692,3.219 0.838,6.202 0.438,8.948 -0.4,2.747 -1.331,5.197 -2.792,7.35 -1.461,2.155 -3.446,3.982 -5.953,5.483 -2.508,1.501 -5.52,2.63 -9.036,3.387 -3.3,0.71 -6.351,0.934 -9.152,0.673 -2.801,-0.26 -5.289,-1.034 -7.461,-2.322 -2.173,-1.287 -4.009,-3.079 -5.507,-5.375 -1.499,-2.295 -2.608,-5.121 -3.33,-8.475 l -6.867,-31.934 c -0.058,-0.27 -0.029,-0.531 0.086,-0.783 0.116,-0.251 0.369,-0.489 0.759,-0.715 0.39,-0.225 0.914,-0.451 1.573,-0.678 0.659,-0.227 1.516,-0.453 2.571,-0.68 1.028,-0.221 1.889,-0.364 2.583,-0.428 0.693,-0.064 1.258,-0.072 1.693,-0.024 0.435,0.049 0.763,0.162 0.986,0.34 0.222,0.179 0.363,0.404 0.421,0.674 l 6.666,31 c 0.448,2.083 1.093,3.833 1.936,5.251 0.842,1.418 1.852,2.524 3.027,3.318 1.175,0.795 2.487,1.298 3.933,1.51 1.447,0.213 2.995,0.142 4.645,-0.213 1.677,-0.361 3.123,-0.94 4.338,-1.74 1.215,-0.798 2.176,-1.791 2.884,-2.976 0.707,-1.185 1.155,-2.555 1.345,-4.11 0.189,-1.555 0.086,-3.251 -0.31,-5.091 l -6.797,-31.609 c -0.058,-0.27 -0.029,-0.531 0.086,-0.783 0.116,-0.251 0.362,-0.488 0.739,-0.71 0.376,-0.222 0.901,-0.449 1.573,-0.678 0.672,-0.229 1.522,-0.455 2.551,-0.676 1.028,-0.221 1.881,-0.362 2.562,-0.423 0.68,-0.062 1.238,-0.068 1.673,-0.02 0.435,0.048 0.756,0.163 0.965,0.344 0.209,0.181 0.342,0.408 0.4,0.678 z"
   id="path125"
   inkscape:connector-curvature="0"
   style="fill:#ffffff" />
	<path
   d="m 494.003,154.504 c 0.19,2.816 -0.168,5.322 -1.074,7.519 -0.906,2.197 -2.208,4.066 -3.906,5.609 -1.699,1.543 -3.725,2.754 -6.078,3.634 -2.353,0.879 -4.896,1.412 -7.629,1.596 -1.85,0.125 -3.579,0.088 -5.187,-0.108 -1.608,-0.197 -3.034,-0.467 -4.277,-0.814 -1.244,-0.346 -2.289,-0.726 -3.134,-1.141 -0.846,-0.414 -1.461,-0.789 -1.844,-1.124 -0.383,-0.334 -0.674,-0.834 -0.871,-1.501 -0.197,-0.666 -0.339,-1.634 -0.424,-2.904 -0.058,-0.855 -0.079,-1.575 -0.063,-2.159 0.016,-0.583 0.074,-1.059 0.174,-1.426 0.1,-0.367 0.248,-0.633 0.445,-0.799 0.197,-0.166 0.433,-0.258 0.709,-0.277 0.386,-0.026 0.947,0.165 1.682,0.573 0.735,0.408 1.673,0.852 2.814,1.329 1.141,0.478 2.494,0.893 4.057,1.245 1.563,0.353 3.352,0.46 5.367,0.325 1.325,-0.089 2.501,-0.328 3.529,-0.717 1.027,-0.388 1.887,-0.896 2.58,-1.526 0.692,-0.629 1.203,-1.384 1.532,-2.266 0.329,-0.882 0.458,-1.847 0.387,-2.896 -0.082,-1.214 -0.484,-2.234 -1.205,-3.06 -0.721,-0.825 -1.636,-1.539 -2.744,-2.145 -1.109,-0.604 -2.36,-1.157 -3.752,-1.66 -1.393,-0.502 -2.83,-1.036 -4.31,-1.602 -1.48,-0.566 -2.925,-1.224 -4.334,-1.975 -1.41,-0.75 -2.686,-1.677 -3.827,-2.779 -1.143,-1.101 -2.099,-2.43 -2.869,-3.987 -0.771,-1.556 -1.231,-3.453 -1.382,-5.689 -0.173,-2.567 0.151,-4.856 0.972,-6.867 0.821,-2.01 1.996,-3.712 3.524,-5.104 1.528,-1.392 3.369,-2.48 5.521,-3.264 2.152,-0.783 4.456,-1.257 6.913,-1.423 1.27,-0.085 2.546,-0.074 3.83,0.033 1.282,0.108 2.487,0.29 3.614,0.547 1.126,0.257 2.131,0.563 3.016,0.919 0.883,0.356 1.473,0.664 1.768,0.921 0.294,0.258 0.496,0.48 0.606,0.667 0.109,0.187 0.209,0.437 0.3,0.749 0.09,0.313 0.166,0.71 0.226,1.191 0.06,0.481 0.115,1.081 0.163,1.798 0.054,0.801 0.079,1.479 0.075,2.033 -0.004,0.555 -0.042,1.016 -0.115,1.38 -0.073,0.366 -0.193,0.637 -0.361,0.815 -0.168,0.178 -0.404,0.277 -0.708,0.297 -0.304,0.02 -0.799,-0.14 -1.488,-0.482 -0.688,-0.342 -1.532,-0.708 -2.528,-1.098 -0.998,-0.391 -2.144,-0.729 -3.438,-1.016 -1.295,-0.287 -2.702,-0.379 -4.22,-0.277 -1.187,0.08 -2.212,0.294 -3.076,0.644 -0.864,0.35 -1.576,0.8 -2.135,1.351 -0.559,0.551 -0.959,1.195 -1.201,1.932 -0.241,0.738 -0.335,1.507 -0.281,2.307 0.08,1.188 0.474,2.193 1.181,3.02 0.707,0.826 1.629,1.54 2.766,2.143 1.136,0.603 2.414,1.154 3.834,1.655 1.42,0.5 2.871,1.033 4.351,1.599 1.479,0.566 2.938,1.223 4.376,1.972 1.437,0.75 2.733,1.674 3.889,2.774 1.156,1.101 2.119,2.423 2.888,3.965 0.769,1.543 1.227,3.391 1.372,5.544 z"
   id="path127"
   inkscape:connector-curvature="0"
   style="fill:#ffffff" />
	<path
   d="m 540.992,123.42 c -0.043,0.802 -0.114,1.483 -0.213,2.046 -0.1,0.563 -0.228,1.013 -0.384,1.351 -0.157,0.338 -0.343,0.584 -0.56,0.739 -0.216,0.154 -0.448,0.225 -0.697,0.212 l -13.428,-0.718 -2.312,43.227 c -0.015,0.276 -0.117,0.521 -0.309,0.732 -0.192,0.211 -0.498,0.375 -0.92,0.491 -0.422,0.117 -0.987,0.197 -1.696,0.242 -0.709,0.045 -1.589,0.04 -2.639,-0.017 -1.05,-0.057 -1.925,-0.145 -2.625,-0.265 -0.7,-0.12 -1.254,-0.26 -1.661,-0.421 -0.406,-0.16 -0.694,-0.355 -0.862,-0.586 -0.168,-0.23 -0.244,-0.484 -0.229,-0.76 l 2.312,-43.227 -13.428,-0.718 c -0.277,-0.015 -0.507,-0.11 -0.691,-0.286 -0.185,-0.176 -0.337,-0.44 -0.457,-0.793 -0.12,-0.353 -0.199,-0.814 -0.238,-1.384 -0.039,-0.57 -0.037,-1.255 0.006,-2.057 0.044,-0.829 0.116,-1.532 0.216,-2.108 0.1,-0.577 0.228,-1.034 0.385,-1.372 0.156,-0.337 0.335,-0.578 0.538,-0.719 0.201,-0.141 0.439,-0.205 0.717,-0.19 l 37.797,2.021 c 0.249,0.013 0.473,0.102 0.672,0.265 0.199,0.163 0.358,0.421 0.479,0.773 0.119,0.354 0.198,0.821 0.236,1.405 0.038,0.582 0.036,1.288 -0.009,2.117 z"
   id="path129"
   inkscape:connector-curvature="0"
   style="fill:#ffffff" />
	<path
   d="m 583.926,179.597 c -0.057,0.299 -0.16,0.54 -0.307,0.723 -0.148,0.183 -0.438,0.303 -0.872,0.361 -0.435,0.058 -1.051,0.038 -1.849,-0.058 -0.799,-0.097 -1.877,-0.275 -3.236,-0.536 -1.141,-0.219 -2.047,-0.42 -2.715,-0.604 -0.669,-0.185 -1.187,-0.39 -1.552,-0.614 -0.365,-0.225 -0.607,-0.468 -0.727,-0.731 -0.118,-0.262 -0.201,-0.567 -0.247,-0.914 l -2.472,-12.687 c -0.315,-1.44 -0.646,-2.729 -0.991,-3.867 -0.347,-1.136 -0.785,-2.115 -1.318,-2.936 -0.533,-0.821 -1.201,-1.491 -2.002,-2.011 -0.803,-0.52 -1.774,-0.889 -2.915,-1.108 l -3.343,-0.641 -3.851,20.096 c -0.052,0.272 -0.188,0.5 -0.405,0.683 -0.219,0.184 -0.544,0.305 -0.978,0.362 -0.435,0.058 -0.999,0.062 -1.693,0.014 -0.695,-0.049 -1.572,-0.175 -2.633,-0.377 -1.032,-0.198 -1.887,-0.404 -2.564,-0.619 -0.678,-0.214 -1.207,-0.428 -1.589,-0.642 -0.381,-0.214 -0.633,-0.445 -0.754,-0.694 -0.122,-0.249 -0.156,-0.509 -0.104,-0.781 l 9.177,-47.896 c 0.229,-1.195 0.7,-2 1.413,-2.413 0.714,-0.413 1.519,-0.533 2.415,-0.361 l 13.655,2.616 c 1.386,0.266 2.522,0.512 3.408,0.738 0.887,0.227 1.689,0.45 2.407,0.672 2.063,0.706 3.872,1.587 5.431,2.646 1.557,1.059 2.814,2.293 3.77,3.701 0.956,1.409 1.591,2.982 1.906,4.718 0.315,1.737 0.272,3.651 -0.128,5.744 -0.339,1.767 -0.871,3.334 -1.599,4.701 -0.727,1.368 -1.635,2.54 -2.723,3.514 -1.089,0.975 -2.352,1.761 -3.79,2.359 -1.439,0.598 -3.023,0.999 -4.752,1.202 0.715,0.532 1.366,1.136 1.955,1.812 0.589,0.677 1.115,1.46 1.578,2.352 0.463,0.892 0.871,1.886 1.225,2.981 0.354,1.097 0.669,2.319 0.945,3.667 l 2.452,11.246 c 0.209,1.111 0.336,1.917 0.382,2.419 0.045,0.505 0.043,0.892 -0.01,1.163 z M 572.637,120.3 c -0.87,-0.167 -1.601,-0.321 -2.193,-0.462 -0.592,-0.141 -1.088,-0.314 -1.485,-0.517 -0.398,-0.203 -0.731,-0.45 -0.999,-0.741 -0.269,-0.291 -0.546,-0.647 -0.831,-1.068 l -6.399,-10.27 c -0.275,-0.476 -0.423,-0.848 -0.44,-1.12 -0.019,-0.271 0.101,-0.453 0.357,-0.544 0.257,-0.091 0.683,-0.108 1.277,-0.051 0.594,0.057 1.354,0.175 2.278,0.352 1.114,0.213 2.021,0.408 2.72,0.584 0.698,0.176 1.249,0.353 1.652,0.528 0.402,0.176 0.704,0.368 0.904,0.575 0.199,0.208 0.384,0.454 0.556,0.741 l 3.739,6.506 6.068,-4.542 c 0.27,-0.229 0.536,-0.411 0.802,-0.543 0.264,-0.132 0.616,-0.206 1.057,-0.22 0.438,-0.014 1.002,0.023 1.689,0.112 0.687,0.089 1.602,0.244 2.743,0.462 0.923,0.177 1.65,0.352 2.182,0.523 0.53,0.172 0.896,0.355 1.099,0.549 0.202,0.194 0.244,0.413 0.128,0.658 -0.118,0.246 -0.36,0.516 -0.727,0.812 l -9.62,7.2 c -0.367,0.296 -0.747,0.519 -1.142,0.669 -0.396,0.15 -0.843,0.24 -1.341,0.271 -0.5,0.031 -1.072,0.006 -1.719,-0.076 -0.647,-0.082 -1.431,-0.211 -2.355,-0.388 z m 4.328,20.86 c 0.333,-1.739 0.221,-3.282 -0.339,-4.629 -0.559,-1.346 -1.688,-2.437 -3.388,-3.269 -0.518,-0.24 -1.115,-0.467 -1.792,-0.682 -0.678,-0.214 -1.628,-0.438 -2.851,-0.673 l -4.81,-0.921 -2.867,14.959 5.463,1.047 c 1.521,0.292 2.889,0.363 4.1,0.215 1.212,-0.148 2.262,-0.482 3.15,-1.002 0.888,-0.52 1.611,-1.206 2.169,-2.057 0.558,-0.85 0.946,-1.846 1.165,-2.988 z"
   id="path131"
   inkscape:connector-curvature="0"
   style="fill:#ffffff" />
	<path
   d="m 622.683,189.566 c -0.257,0.761 -0.504,1.385 -0.742,1.874 -0.238,0.489 -0.476,0.869 -0.713,1.139 -0.237,0.27 -0.479,0.445 -0.724,0.522 -0.245,0.078 -0.485,0.077 -0.722,-0.003 l -25.562,-8.625 c -0.865,-0.292 -1.507,-0.793 -1.924,-1.503 -0.417,-0.71 -0.432,-1.642 -0.042,-2.796 l 14.968,-44.359 c 0.39,-1.153 0.966,-1.887 1.728,-2.199 0.763,-0.312 1.576,-0.322 2.441,-0.03 l 25.404,8.572 c 0.236,0.08 0.424,0.216 0.563,0.409 0.139,0.193 0.219,0.476 0.24,0.848 0.021,0.372 -0.023,0.825 -0.13,1.358 -0.107,0.533 -0.293,1.193 -0.559,1.98 -0.248,0.734 -0.491,1.345 -0.729,1.834 -0.238,0.489 -0.476,0.869 -0.713,1.139 -0.237,0.271 -0.473,0.447 -0.704,0.529 -0.232,0.082 -0.467,0.083 -0.702,0.004 l -18.168,-6.131 -4.193,12.427 15.376,5.188 c 0.235,0.08 0.428,0.225 0.576,0.436 0.147,0.21 0.235,0.489 0.266,0.834 0.029,0.346 -0.01,0.785 -0.116,1.318 -0.107,0.533 -0.285,1.167 -0.532,1.901 -0.257,0.761 -0.502,1.378 -0.735,1.854 -0.233,0.476 -0.467,0.843 -0.699,1.1 -0.233,0.257 -0.47,0.418 -0.711,0.483 -0.241,0.065 -0.479,0.058 -0.715,-0.022 l -15.377,-5.188 -4.843,14.354 18.325,6.184 c 0.236,0.08 0.428,0.225 0.576,0.436 0.147,0.21 0.233,0.495 0.259,0.854 0.026,0.359 -0.016,0.805 -0.123,1.338 -0.107,0.534 -0.288,1.181 -0.544,1.941 z"
   id="path133"
   inkscape:connector-curvature="0"
   style="fill:#ffffff" />
	<path
   d="m 682.406,192.56 c -2.23,4.391 -4.712,7.856 -7.443,10.394 -2.732,2.539 -5.673,4.25 -8.821,5.133 -3.148,0.884 -6.493,1.008 -10.035,0.373 -3.541,-0.635 -7.434,-2.03 -11.677,-4.185 l -11.434,-5.808 c -0.814,-0.413 -1.377,-1.001 -1.688,-1.765 -0.311,-0.763 -0.19,-1.687 0.36,-2.772 l 21.2,-41.741 c 0.551,-1.085 1.227,-1.728 2.026,-1.927 0.799,-0.199 1.605,-0.092 2.42,0.322 l 12.285,6.24 c 4.269,2.167 7.635,4.505 10.101,7.015 2.465,2.509 4.217,5.261 5.256,8.256 1.039,2.995 1.356,6.205 0.951,9.63 -0.404,3.423 -1.571,7.036 -3.501,10.835 z m -10.234,-4.779 c 1.152,-2.27 1.959,-4.514 2.418,-6.732 0.459,-2.218 0.467,-4.34 0.021,-6.366 -0.446,-2.026 -1.383,-3.907 -2.813,-5.642 -1.431,-1.735 -3.639,-3.361 -6.623,-4.877 l -4.922,-2.5 -16.539,32.564 5.069,2.575 c 2.664,1.353 5.084,2.148 7.262,2.384 2.176,0.237 4.229,-0.032 6.158,-0.806 1.929,-0.773 3.722,-2.043 5.379,-3.809 1.656,-1.764 3.187,-4.028 4.59,-6.791 z"
   id="path135"
   inkscape:connector-curvature="0"
   style="fill:#ffffff" />
	<path
   d="m 705.54,237.09 c -0.463,0.657 -0.877,1.185 -1.244,1.586 -0.367,0.401 -0.703,0.698 -1.008,0.89 -0.304,0.191 -0.585,0.291 -0.842,0.295 -0.258,0.005 -0.488,-0.064 -0.691,-0.208 l -22.057,-15.534 c -0.747,-0.525 -1.219,-1.188 -1.418,-1.988 -0.198,-0.8 0.053,-1.697 0.755,-2.692 l 26.956,-38.277 c 0.701,-0.995 1.461,-1.534 2.281,-1.617 0.819,-0.083 1.603,0.139 2.349,0.665 l 21.921,15.438 c 0.204,0.144 0.345,0.328 0.424,0.552 0.078,0.225 0.074,0.518 -0.011,0.88 -0.087,0.363 -0.257,0.784 -0.511,1.265 -0.254,0.481 -0.62,1.061 -1.098,1.74 -0.446,0.633 -0.854,1.15 -1.22,1.552 -0.368,0.401 -0.703,0.698 -1.008,0.89 -0.305,0.192 -0.58,0.294 -0.825,0.307 -0.246,0.013 -0.471,-0.052 -0.675,-0.196 l -15.677,-11.041 -7.552,10.723 13.268,9.344 c 0.204,0.144 0.347,0.337 0.429,0.581 0.082,0.244 0.088,0.536 0.019,0.875 -0.071,0.34 -0.232,0.75 -0.486,1.231 -0.255,0.48 -0.604,1.038 -1.051,1.671 -0.462,0.656 -0.873,1.179 -1.231,1.569 -0.36,0.39 -0.688,0.676 -0.983,0.856 -0.297,0.181 -0.569,0.268 -0.818,0.261 -0.25,-0.006 -0.477,-0.082 -0.68,-0.225 l -13.269,-9.344 -8.723,12.386 15.813,11.136 c 0.203,0.144 0.346,0.337 0.429,0.581 0.082,0.244 0.083,0.542 0.006,0.893 -0.078,0.351 -0.244,0.767 -0.498,1.248 -0.255,0.483 -0.612,1.052 -1.074,1.707 z M 723,184.258 c -0.725,-0.51 -1.327,-0.952 -1.809,-1.325 -0.482,-0.373 -0.862,-0.734 -1.141,-1.083 -0.279,-0.349 -0.481,-0.711 -0.605,-1.086 -0.126,-0.375 -0.231,-0.814 -0.318,-1.315 l -1.604,-11.994 c -0.056,-0.546 -0.036,-0.947 0.06,-1.202 0.095,-0.255 0.277,-0.371 0.55,-0.349 0.271,0.022 0.667,0.182 1.186,0.479 0.518,0.297 1.162,0.717 1.932,1.259 0.927,0.653 1.673,1.204 2.237,1.652 0.564,0.448 0.993,0.835 1.289,1.162 0.294,0.326 0.49,0.625 0.587,0.896 0.097,0.271 0.164,0.572 0.201,0.903 l 0.73,7.469 7.4,-1.642 c 0.34,-0.099 0.657,-0.154 0.954,-0.166 0.295,-0.012 0.646,0.067 1.053,0.234 0.406,0.168 0.904,0.434 1.494,0.798 0.589,0.364 1.359,0.881 2.31,1.55 0.769,0.541 1.359,1 1.772,1.375 0.412,0.375 0.671,0.693 0.776,0.953 0.104,0.26 0.053,0.477 -0.155,0.652 -0.208,0.175 -0.54,0.322 -0.996,0.441 l -11.73,2.602 c -0.457,0.119 -0.896,0.166 -1.316,0.139 -0.422,-0.026 -0.866,-0.128 -1.334,-0.305 -0.468,-0.177 -0.979,-0.436 -1.534,-0.776 -0.557,-0.339 -1.22,-0.78 -1.989,-1.321 z"
   id="path137"
   inkscape:connector-curvature="0"
   style="fill:#ffffff" />
	<path
   d="m 745.291,273.972 c -0.439,0.461 -0.91,0.796 -1.413,1.005 -0.504,0.208 -1.005,0.304 -1.505,0.288 -0.499,-0.017 -0.987,-0.146 -1.463,-0.388 -0.476,-0.243 -0.904,-0.545 -1.285,-0.907 l -3.37,-3.203 c -0.702,-0.667 -1.242,-1.313 -1.619,-1.94 -0.379,-0.626 -0.607,-1.33 -0.686,-2.111 -0.079,-0.781 -0.019,-1.678 0.182,-2.691 0.198,-1.013 0.523,-2.259 0.977,-3.738 l 7.61,-27.408 c 0.468,-1.617 1.007,-3.328 1.616,-5.135 0.609,-1.806 1.246,-3.52 1.91,-5.142 l -0.061,-0.057 c -1.292,1.52 -2.601,3.017 -3.923,4.489 -1.322,1.472 -2.708,2.971 -4.156,4.495 l -19.357,20.367 c -0.19,0.201 -0.418,0.329 -0.68,0.384 -0.264,0.056 -0.583,0.01 -0.958,-0.137 -0.376,-0.147 -0.822,-0.41 -1.341,-0.788 -0.519,-0.378 -1.139,-0.91 -1.861,-1.597 -0.702,-0.667 -1.255,-1.25 -1.659,-1.749 -0.404,-0.499 -0.685,-0.927 -0.84,-1.285 -0.156,-0.358 -0.208,-0.665 -0.155,-0.92 0.052,-0.256 0.174,-0.484 0.364,-0.685 l 33.253,-34.988 c 0.896,-0.942 1.843,-1.388 2.843,-1.334 0.999,0.053 1.9,0.46 2.702,1.223 l 4.242,4.031 c 0.762,0.724 1.342,1.399 1.739,2.025 0.397,0.626 0.659,1.285 0.784,1.977 0.125,0.691 0.116,1.475 -0.028,2.349 -0.144,0.875 -0.397,1.884 -0.759,3.028 l -5.943,21.435 c -0.379,1.282 -0.748,2.544 -1.107,3.786 -0.36,1.242 -0.735,2.47 -1.124,3.684 -0.391,1.213 -0.776,2.403 -1.157,3.567 -0.382,1.164 -0.773,2.32 -1.175,3.465 l 0.03,0.028 c 1.274,-1.461 2.62,-2.968 4.039,-4.521 1.418,-1.552 2.785,-3.021 4.101,-4.405 l 17.355,-18.261 c 0.19,-0.2 0.422,-0.324 0.695,-0.37 0.272,-0.046 0.606,0.004 1.002,0.151 0.396,0.146 0.847,0.414 1.356,0.802 0.509,0.389 1.124,0.926 1.847,1.612 0.682,0.648 1.229,1.216 1.643,1.705 0.414,0.489 0.688,0.912 0.825,1.271 0.137,0.359 0.178,0.666 0.126,0.922 -0.053,0.256 -0.174,0.484 -0.364,0.685 z"
   id="path139"
   inkscape:connector-curvature="0"
   style="fill:#ffffff" />
	<path
   d="m 758.124,293.515 c -0.214,0.177 -0.463,0.266 -0.747,0.269 -0.286,0.002 -0.614,-0.112 -0.985,-0.343 -0.371,-0.231 -0.81,-0.587 -1.314,-1.066 -0.506,-0.48 -1.103,-1.135 -1.791,-1.966 -0.671,-0.81 -1.199,-1.513 -1.585,-2.109 -0.387,-0.596 -0.659,-1.098 -0.816,-1.506 -0.159,-0.408 -0.21,-0.751 -0.154,-1.031 0.056,-0.28 0.19,-0.508 0.403,-0.685 l 39.057,-32.355 c 0.213,-0.176 0.462,-0.266 0.748,-0.269 0.284,-0.002 0.617,0.117 0.998,0.359 0.38,0.242 0.822,0.603 1.327,1.083 0.506,0.479 1.094,1.124 1.765,1.934 0.688,0.831 1.221,1.539 1.599,2.125 0.377,0.585 0.645,1.083 0.803,1.49 0.158,0.408 0.21,0.751 0.154,1.031 -0.057,0.28 -0.19,0.508 -0.403,0.685 z m 49.509,-44.786 c 0.549,0.012 1.029,0.072 1.441,0.18 0.413,0.107 0.826,0.303 1.242,0.588 0.415,0.285 0.859,0.68 1.333,1.187 0.473,0.506 1.036,1.153 1.689,1.942 0.812,0.979 1.379,1.794 1.701,2.444 0.322,0.65 0.466,1.159 0.432,1.529 -0.035,0.37 -0.225,0.607 -0.568,0.713 -0.344,0.105 -0.778,0.124 -1.302,0.055 l -12.271,-1.8 c -0.368,-0.055 -0.714,-0.136 -1.038,-0.245 -0.324,-0.108 -0.666,-0.284 -1.026,-0.523 -0.361,-0.24 -0.748,-0.566 -1.161,-0.979 -0.414,-0.412 -0.894,-0.949 -1.44,-1.609 -0.601,-0.725 -1.05,-1.332 -1.348,-1.821 -0.298,-0.49 -0.453,-0.882 -0.464,-1.178 -0.012,-0.296 0.106,-0.511 0.355,-0.645 0.248,-0.134 0.627,-0.196 1.138,-0.188 z"
   id="path141"
   inkscape:connector-curvature="0"
   style="fill:#ffffff" />
	
	
	
	
	
	
	
	
</g>
</svg>