<svg xmlns="http://www.w3.org/2000/svg" xmlns:xlink="http://www.w3.org/1999/xlink" width="500" zoomAndPan="magnify" viewBox="0 0 375 374.999991" height="500" preserveAspectRatio="xMidYMid meet" version="1.0"><defs><clipPath id="dca7fa1a6b"><path d="M 110.625 0 L 264.375 0 L 264.375 375 L 110.625 375 Z M 110.625 0 " clip-rule="nonzero"/></clipPath></defs><g clip-path="url(#dca7fa1a6b)"><path fill="#8deb57" d="M 243.300781 0 L 243.300781 29.070312 L 214.621094 29.070312 C 193.285156 29.070312 177.839844 32.226562 168.28125 38.53125 C 158.722656 44.84375 153.9375 53.851562 153.9375 65.554688 C 153.9375 87.929688 173.382812 99.113281 212.277344 99.113281 L 240.960938 99.113281 L 240.960938 128.183594 C 223.789062 128.183594 208.828125 130.722656 196.085938 135.792969 C 183.332031 140.867188 171.855469 149.972656 161.644531 163.109375 C 151.433594 176.25 146.328125 191.140625 146.328125 207.789062 C 146.328125 220.277344 150.003906 231.398438 157.355469 241.152344 C 164.699219 250.910156 180.476562 257.152344 204.667969 259.882812 C 220.277344 261.707031 231.722656 264.597656 239.007812 268.566406 C 246.289062 272.535156 252.335938 278.550781 257.148438 286.613281 C 261.960938 294.675781 264.371094 303.394531 264.371094 312.761719 C 264.371094 329.925781 257.28125 344.527344 243.101562 356.558594 C 228.925781 368.589844 209.804688 374.734375 185.742188 375 L 194.71875 342.414062 C 207.59375 341.5 216.734375 338.1875 222.128906 332.464844 C 227.523438 326.738281 230.226562 320.882812 230.226562 314.90625 C 230.226562 301.636719 219.105469 293.765625 196.863281 291.296875 C 139.371094 285.054688 110.625 257.609375 110.625 208.960938 C 110.625 189.058594 116.578125 171.175781 128.476562 155.304688 C 140.378906 139.4375 155.5625 127.535156 174.035156 119.601562 C 155.5625 117.257812 142.136719 110.265625 133.746094 98.625 C 125.355469 86.984375 121.164062 75.113281 121.164062 63.019531 C 121.164062 46.109375 128.605469 31.378906 143.5 18.824219 C 158.394531 6.277344 180.085938 0 208.570312 0 Z M 243.300781 0 " fill-opacity="1" fill-rule="nonzero"/></g></svg>